<svg width="189" height="61" viewBox="0 0 189 61" fill="none" xmlns="http://www.w3.org/2000/svg">
<path d="M39 7H15C8.92487 7 4 11.9249 4 18V42C4 48.0751 8.92487 53 15 53H39C45.0751 53 50 48.0751 50 42V18C50 11.9249 45.0751 7 39 7Z" stroke="url(#paint0_linear_457_97)" stroke-width="8"/>
<path d="M75.5625 47.9984V10.8984H81.8125V47.9984H75.5625ZM101.816 48.3484C99.549 48.3484 97.549 47.9317 95.8156 47.0984C94.0823 46.2317 92.7323 44.9317 91.7656 43.1984C90.799 41.4317 90.3156 39.2151 90.3156 36.5484V21.2984H96.5656V35.6984C96.5656 38.0984 97.099 39.8984 98.1656 41.0984C99.2656 42.2651 100.816 42.8484 102.816 42.8484C104.283 42.8484 105.549 42.5484 106.616 41.9484C107.716 41.3484 108.566 40.4484 109.166 39.2484C109.799 38.0484 110.116 36.5651 110.116 34.7984V21.2984H116.366V47.9984H110.416V40.7984L111.466 42.9984C110.566 44.7317 109.249 46.0651 107.516 46.9984C105.783 47.8984 103.883 48.3484 101.816 48.3484ZM158.749 20.9984C160.883 20.9984 162.766 21.4151 164.399 22.2484C166.066 23.0817 167.366 24.3651 168.299 26.0984C169.233 27.7984 169.699 29.9984 169.699 32.6984V47.9984H163.449V33.4984C163.449 31.1317 162.933 29.3651 161.899 28.1984C160.866 27.0317 159.383 26.4484 157.449 26.4484C156.083 26.4484 154.866 26.7484 153.799 27.3484C152.766 27.9484 151.949 28.8317 151.349 29.9984C150.783 31.1651 150.499 32.6484 150.499 34.4484V47.9984H144.249V33.4984C144.249 31.1317 143.733 29.3651 142.699 28.1984C141.666 27.0317 140.183 26.4484 138.249 26.4484C136.883 26.4484 135.666 26.7484 134.599 27.3484C133.566 27.9484 132.749 28.8317 132.149 29.9984C131.583 31.1651 131.299 32.6484 131.299 34.4484V47.9984H125.049V21.2984H130.999V28.3984L129.949 26.2984C130.849 24.5651 132.149 23.2484 133.849 22.3484C135.583 21.4484 137.549 20.9984 139.749 20.9984C142.249 20.9984 144.416 21.6151 146.249 22.8484C148.116 24.0817 149.349 25.9484 149.949 28.4484L147.499 27.5984C148.366 25.5984 149.799 23.9984 151.799 22.7984C153.799 21.5984 156.116 20.9984 158.749 20.9984ZM178.186 47.9984V21.2984H184.436V47.9984H178.186ZM181.336 16.8984C180.169 16.8984 179.203 16.5317 178.436 15.7984C177.703 15.0651 177.336 14.1817 177.336 13.1484C177.336 12.0817 177.703 11.1984 178.436 10.4984C179.203 9.76511 180.169 9.39844 181.336 9.39844C182.503 9.39844 183.453 9.74844 184.186 10.4484C184.953 11.1151 185.336 11.9651 185.336 12.9984C185.336 14.0984 184.969 15.0317 184.236 15.7984C183.503 16.5317 182.536 16.8984 181.336 16.8984Z" fill="#EDEDED"/>
<defs>
<linearGradient id="paint0_linear_457_97" x1="27" y1="3" x2="27" y2="57" gradientUnits="userSpaceOnUse">
<stop stop-color="#8276FF"/>
<stop offset="1" stop-color="#4B4EE7"/>
</linearGradient>
</defs>
</svg>
